PathFileType	4	(X/Y/Z)	RBDS010\RBDS010runT25.trc
DataRate	CameraRate	NumFrames	NumMarkers	Units	OrigDataRate	OrigDataStartFrame	OrigNumFrames
150.000000	150.000000	6	32	mm	150.000000	562	4500
Frame#	Time	L.ASIS			L.Heel.Bottom			L.Heel.Lateral			L.Heel.Top			L.Iliac.Crest			L.MT5			L.PSIS			L.Shank.Bottom.Lateral			L.Shank.Bottom.Medial			L.Shank.Top.Lateral			L.Shank.Top.Medial			L.Thigh.Bottom.Lateral			L.Thigh.Bottom.Medial			L.Thigh.Top.Lateral			L.Thigh.Top.Medial			R.ASIS			R.ASY			R.Heel.Bottom			R.Heel.Lateral			R.Heel.Top			R.Iliac.Crest			R.MT1			R.MT5			R.PSIS			R.Shank.Bottom.Lateral			R.Shank.Bottom.Medial			R.Shank.Top.Lateral			R.Shank.Top.Medial			R.Thigh.Bottom.Lateral			R.Thigh.Bottom.Medial			R.Thigh.Top.Lateral			R.Thigh.Top.Medial			
		X1	Y1	Z1	X2	Y2	Z2	X3	Y3	Z3	X4	Y4	Z4	X5	Y5	Z5	X6	Y6	Z6	X7	Y7	Z7	X8	Y8	Z8	X9	Y9	Z9	X10	Y10	Z10	X11	Y11	Z11	X12	Y12	Z12	X13	Y13	Z13	X14	Y14	Z14	X15	Y15	Z15	X16	Y16	Z16	X17	Y17	Z17	X18	Y18	Z18	X19	Y19	Z19	X20	Y20	Z20	X21	Y21	Z21	X22	Y22	Z22	X23	Y23	Z23	X24	Y24	Z24	X25	Y25	Z25	X26	Y26	Z26	X27	Y27	Z27	X28	Y28	Z28	X29	Y29	Z29	X30	Y30	Z30	X31	Y31	Z31	X32	Y32	Z32	

563	3.746666666666667	2315.597386876988	903.3564442828728	873.6867144768937	1823.675602106994	345.2418819509019	928.6441850274999	1849.239044971609	326.9918974647797	882.3715552789979	1874.345868994478	354.3243814089072	930.0834188124535	2272.175253881134	989.4548001902117	839.3832558133558	1903.144213911273	176.3173810965238	853.6711080593616	2145.963153598738	956.9431352420232	941.4507089178805	1970.748008648432	337.0725335507972	870.8285328091118	1962.887908476626	367.455039423043	914.2995681753562	2042.00538955231	371.9190797350693	858.8508692341929	2034.844647301076	403.0252327535603	901.87275756883	2269.921980194374	508.4457130408198	832.5169766921814	2218.404586555386	495.5872170100118	881.8865887404183	2232.536953795116	611.0982332129843	822.0022961446754	2184.684331092743	599.9619485146563	869.3997336398056	2311.733954577913	916.772383715157	1105.564074421608	2279.453475897012	82.93779446029801	1005.074246439203	2098.430552061212	32.16382307055011	990.1493895633155	2123.220506579526	51.2959364979795	1035.660370532353	2111.063163142537	80.28962032177446	989.933127119986	2242.352491014639	992.2601352977807	1143.348218700173	2312.740629282257	40.65235896290438	957.310611235667	2284.698055435237	38.87601472472126	1071.678312749481	2143.069301019889	963.6743372773237	1039.03018295314	2208.667491626878	159.0819637772613	1055.850584455701	2167.701887453049	181.6637377848007	1032.970673638988	2233.595471950556	235.7669039459585	1082.259515730468	2191.742402191451	255.8021135262919	1054.478565760378	2303.769410456394	544.7228338987297	1135.398940029914	2245.828285053688	527.1475894505288	1093.668473069312	2258.287546115262	643.2534641655099	1152.474905436443	2203.302797610395	627.5301843700051	1114.196679221868	
564	3.753333333333333	2313.477212568493	904.0365797296125	873.0376829914185	1835.590686390231	339.9661131924341	926.7367781265316	1862.328931080772	323.1014513735727	880.6378735233214	1885.921531938783	350.5516750640384	929.0076752702241	2269.43392750604	990.4295484171354	839.1158995175945	1920.793257000239	174.4710337006126	850.4493520682395	2144.585405410887	958.0680205011643	941.9262866413095	1983.625720452678	335.3981597685516	869.4900108043404	1975.327489914941	365.604029844792	912.9795646238189	2054.384107907307	371.2513736147438	857.5866844886365	2046.788734560948	402.1887301502522	900.6488994931484	2278.739641873952	510.6507472467561	831.2295933914095	2227.749503685628	496.0084008856209	880.5456036703807	2237.983180312801	611.9914719591484	820.8335029797821	2190.536328547368	599.1375933322935	868.0976260606707	2310.936530366299	917.0063528609202	1104.96687013857	2262.899494533527	82.88098173164204	1005.407183274596	2081.735664352203	32.78965539484005	990.4158375453507	2106.627476628147	51.85307779085219	1035.886562370074	2094.450668999148	80.8657869030248	990.2023882854318	2242.38104315464	993.3087036643167	1143.26699751815	2295.902664881336	40.50064006284855	957.5498141285914	2267.960800502853	38.67322800222009	1071.832460469507	2142.311831611097	964.9829950319433	1039.580052222712	2193.404998860978	159.5559130187066	1056.328920565458	2152.908437013195	182.767544211979	1033.486804758733	2219.617169921259	235.7286874433151	1082.785081331045	2178.259929518375	256.4542991255714	1054.976291726681	2295.547832266714	543.8188329491169	1135.899895726833	2237.053870291095	527.4280375208541	1094.371572757247	2252.270762417996	643.3749388683863	1152.815494217307	2196.933286738414	628.8270673135444	1114.60062327276	
565	3.76	2311.655682111484	905.2718628782629	872.6520937864225	1847.685300910954	333.5700746992458	924.7137286590329	1875.598307120796	318.1059905649227	878.8518603844466	1897.567118112816	345.814198868249	927.7774393693597	2267.085539181475	992.0334293567629	838.9819994484205	1939.067910851151	171.8347130517007	847.4890493983165	2143.379496237203	959.6673204372393	942.3801989851207	1996.567658429665	333.1675217711081	868.1070471229609	1987.658638724022	363.1685961889129	911.6059647967872	2066.639493491981	370.3492222179443	856.3032569801071	2058.429282635462	401.1058816645562	899.3873990586216	2287.359816877243	513.6268549234659	830.1428345872288	2236.925990314454	497.3050450424371	879.4354058371534	2243.291264783074	613.5758830674174	819.7828975768384	2196.25812168175	599.0916768481507	866.9383390713047	2310.182471923656	917.6556803964817	1104.510124773655	2246.279096413339	82.89640781990153	1005.641300888956	2064.960854472685	33.59964603330925	990.6697372996259	2089.975914087519	52.62540377295176	1036.079902257844	2077.806089708419	81.61887678373843	990.400595787127	2242.627571439176	994.9547720946736	1143.180675760855	2278.966392292333	40.33473735112554	957.7000674244557	2251.119898628637	38.52302582452199	1071.93097547668	2141.655139975778	966.6814808195896	1040.137005662794	2177.863332618203	160.1828178370903	1056.621996252989	2137.815864624104	183.9124462870134	1033.779011072753	2205.171346300197	235.9202511036093	1083.099436663736	2164.274788974526	257.2167039133918	1055.225704713032	2286.641915819978	543.2812163372362	1136.130207391775	2227.623418759241	528.2526164416029	1094.756492756456	2245.811166109856	643.8954553227129	1152.947414429185	2190.136267122711	630.688501465038	1114.763125261274	
566	3.766666666666667	2310.163336017558	907.0340265014577	872.5600412537036	1860.002794264965	326.0905252402299	922.647753436635	1889.046830486333	312.0447669165972	877.0591905929482	1909.314643195272	340.1259120843189	926.4359885575184	2265.161283169904	994.1724044435383	838.989860184428	1957.885207569168	168.4660412307691	844.8055418657151	2142.333705522591	961.70302433759	942.82255855882	2009.553182896496	330.3917382875876	866.7010931546364	1999.867126349658	360.1488130590573	910.2026008378002	2078.740871382417	369.2017392815835	855.0192330727898	2069.740210482708	399.7536336343935	898.1095566647259	2295.702892273939	517.3313973310862	829.2623101136345	2245.838476433507	499.4531853925827	878.5633907150946	2248.427027797152	615.8377736731603	818.8702679479672	2201.812475130233	599.8329791285992	865.9529460585984	2309.460016226636	918.6775590136916	1104.243727364789	2229.63827932882	83.01899968514309	1005.779373717055	2048.142483913286	34.69550385494222	990.9099053634847	2073.306031494845	53.69029981812948	1036.249131191072	2061.184671230798	82.64456110430648	990.5450812635606	2243.052838468353	997.0562696799071	1143.124396270185	2261.957715216344	40.19061957623174	957.7599100554885	2234.205235860269	38.44734929921925	1071.963094295844	2141.086286429615	968.7170928682206	1040.698005897571	2162.135578618595	161.0364740082761	1056.721301625353	2122.500808438819	185.1797545674614	1033.853338968021	2190.376663633552	236.4236521854401	1083.183574841528	2149.878059657183	258.1775873188158	1055.227952872408	2277.192652487733	543.1570930734625	1136.04142644633	2217.686575000748	529.6578892114852	1094.781901102781	2239.020501600059	644.8313194354882	1152.845767515217	2183.030144377707	633.1180981186554	1114.668302342425	
567	3.773333333333333	2309.006980837173	909.2965411082037	872.7593417549057	1872.599416081523	317.5698113688883	920.6121046625235	1902.694137411612	304.9685134586766	875.3074104456882	1921.212090932788	333.5098830816065	925.0345199882997	2263.658677100329	996.764131715184	839.1382658571271	1977.189506976082	164.4406503521514	842.4052440159996	2141.438578499529	964.1491330567859	943.2642206181617	2022.577081074081	327.0882692107602	865.3010982575905	2011.9569771037	356.5501315974444	908.8000565342907	2090.671540517597	367.7985923802054	853.758631012849	2080.712958923006	398.1072332952755	896.8419361424563	2303.695280537554	521.7127711249906	828.5810672596084	2254.396136863276	502.4128159060741	877.9181616052173	2253.363038144547	618.7563317480227	818.1050648217621	2207.169134728919	601.3578490705736	865.1572323396902	2308.769738272391	920.03070810611	1104.193416461583	2213.033972746645	83.27773046510077	1005.841186818237	2031.327179493235	36.18343379438084	991.1337748607141	2056.667252199857	55.12159671774317	1036.404828785382	2044.651143702993	84.04214477832326	990.6595171394804	2243.612036420273	999.4761999815904	1143.127979377438	2244.908935335302	40.10082565012027	957.7365591892566	2217.255236510451	38.4577365373943	1071.924920065964	2140.602214339057	971.0530934805502	1041.262425092814	2146.319612822994	162.1936022873607	1056.640807007759	2107.048696752183	186.6563265754932	1033.735626995273	2175.356118783016	237.3169006807022	1083.042314178633	2135.172268923909	259.4240382366028	1055.004885527938	2267.357623629614	543.4923856912922	1135.613140383199	2207.403627921928	531.6720283797058	1094.442530242008	2232.024658037411	646.1988826254396	1152.503066234917	2175.743856021177	636.1141170631681	1114.324239031165	
568	3.78	2308.171223456814	912.0352474480485	873.2161013616569	1885.541148874206	308.0556052983326	918.674216129291	1916.577890515988	296.9372984816841	873.6419749411992	1933.320810854197	325.9971316569154	923.6275138289332	2262.544288826918	999.7445385017738	839.4160150523279	1996.95075388174	159.8486227318279	840.2870516668804	2140.688735191324	966.9892291169584	943.7162486040504	2035.647549110974	323.2792031842403	863.9411919767986	2023.948782835412	352.3822452771493	907.4335445227512	2102.426998061106	366.1297252959994	852.5492784275864	2091.355556053949	396.1405856446515	895.6147416265903	2311.271947582307	526.7103153239129	828.0817964503987	2262.515843842086	506.1269560125739	877.4712861423313	2258.077763885	622.3019472453004	817.4864195352164	2212.302599481762	603.6470498238467	864.5499685718778	2308.126962361196	921.6766775355028	1104.356842252306	2196.528214653303	83.69172923168009	1005.856666322862	2014.567709278515	38.16480217196671	991.3357966595987	2040.113856815856	56.98556413949431	1036.555594720593	2028.274518274258	85.90549272156805	990.7666849634036	2244.264138322933	1002.098192436213	1143.210778550872	2227.854734153024	40.09016674190725	957.6434881055416	2200.311774827219	38.5572896408575	1071.818679592003	2140.21167114295	973.6671865833964	1041.83271877091	2130.510249326934	163.7260544815539	1056.410395015556	2091.546599193779	188.4265144706312	1033.463426667983	2160.227511134822	238.6666543064447	1082.69960125375	2120.264139764578	261.0345981536981	1054.592555883267	2257.29856025263	544.3271777345557	1134.854191543881	2196.934276929937	534.3123155237324	1093.768134968031	2224.954750120453	648.0114273210067	1151.929633447866	2168.407988473239	639.6683479203776	1113.761538159389	
